G04 #@! TF.GenerationSoftware,KiCad,Pcbnew,(5.1.2-1)-1*
G04 #@! TF.CreationDate,2019-12-30T17:07:45+01:00*
G04 #@! TF.ProjectId,C64_autofire,4336345f-6175-4746-9f66-6972652e6b69,rev?*
G04 #@! TF.SameCoordinates,Original*
G04 #@! TF.FileFunction,Legend,Bot*
G04 #@! TF.FilePolarity,Positive*
%FSLAX46Y46*%
G04 Gerber Fmt 4.6, Leading zero omitted, Abs format (unit mm)*
G04 Created by KiCad (PCBNEW (5.1.2-1)-1) date 2019-12-30 17:07:45*
%MOMM*%
%LPD*%
G04 APERTURE LIST*
%ADD10C,0.150000*%
%ADD11C,0.120000*%
G04 APERTURE END LIST*
D10*
X64576056Y-23410687D02*
X64099865Y-23411121D01*
X64052681Y-23887355D01*
X64100256Y-23839692D01*
X64195451Y-23791987D01*
X64433546Y-23791769D01*
X64528828Y-23839301D01*
X64576490Y-23886877D01*
X64624196Y-23982072D01*
X64624413Y-24220167D01*
X64576881Y-24315448D01*
X64529306Y-24363111D01*
X64434111Y-24410817D01*
X64196016Y-24411034D01*
X64100734Y-24363502D01*
X64053072Y-24315926D01*
X65481121Y-23743194D02*
X65481730Y-24409861D01*
X65242679Y-23362459D02*
X65005235Y-24076962D01*
X65624283Y-24076397D01*
X66005452Y-24314145D02*
X66053115Y-24361720D01*
X66005539Y-24409383D01*
X65957877Y-24361807D01*
X66005452Y-24314145D01*
X66005539Y-24409383D01*
X66624065Y-23837390D02*
X66528783Y-23789858D01*
X66481121Y-23742282D01*
X66433415Y-23647087D01*
X66433372Y-23599468D01*
X66480904Y-23504187D01*
X66528479Y-23456524D01*
X66623674Y-23408818D01*
X66814150Y-23408645D01*
X66909432Y-23456177D01*
X66957094Y-23503752D01*
X67004800Y-23598947D01*
X67004843Y-23646566D01*
X66957311Y-23741848D01*
X66909736Y-23789510D01*
X66814541Y-23837216D01*
X66624065Y-23837390D01*
X66528870Y-23885096D01*
X66481295Y-23932758D01*
X66433763Y-24028040D01*
X66433936Y-24218516D01*
X66481642Y-24313710D01*
X66529305Y-24361286D01*
X66624586Y-24408818D01*
X66815062Y-24408644D01*
X66910257Y-24360938D01*
X66957833Y-24313276D01*
X67005365Y-24217994D01*
X67005191Y-24027518D01*
X66957485Y-23932324D01*
X66909823Y-23884748D01*
X66814541Y-23837216D01*
X67623674Y-23407906D02*
X67718912Y-23407819D01*
X67814193Y-23455351D01*
X67861856Y-23502927D01*
X67909561Y-23598121D01*
X67957354Y-23788554D01*
X67957572Y-24026649D01*
X67910126Y-24217169D01*
X67862594Y-24312450D01*
X67815019Y-24360113D01*
X67719824Y-24407819D01*
X67624586Y-24407906D01*
X67529304Y-24360374D01*
X67481642Y-24312798D01*
X67433936Y-24217603D01*
X67386143Y-24027171D01*
X67385926Y-23789076D01*
X67433371Y-23598556D01*
X67480903Y-23503274D01*
X67528479Y-23455612D01*
X67623674Y-23407906D01*
X68576054Y-23407037D02*
X68671292Y-23406950D01*
X68766574Y-23454482D01*
X68814236Y-23502058D01*
X68861942Y-23597253D01*
X68909735Y-23787685D01*
X68909952Y-24025780D01*
X68862507Y-24216300D01*
X68814975Y-24311581D01*
X68767399Y-24359244D01*
X68672205Y-24406950D01*
X68576966Y-24407037D01*
X68481685Y-24359505D01*
X68434022Y-24311929D01*
X68386317Y-24216734D01*
X68338524Y-24026302D01*
X68338307Y-23788207D01*
X68385752Y-23597687D01*
X68433284Y-23502405D01*
X68480859Y-23454743D01*
X68576054Y-23407037D01*
X70100775Y-24405646D02*
X70100167Y-23738980D01*
X70100254Y-23834218D02*
X70147830Y-23786556D01*
X70243024Y-23738850D01*
X70385881Y-23738719D01*
X70481163Y-23786251D01*
X70528869Y-23881446D01*
X70529347Y-24405255D01*
X70528869Y-23881446D02*
X70576401Y-23786165D01*
X70671595Y-23738459D01*
X70814453Y-23738328D01*
X70909734Y-23785860D01*
X70957440Y-23881055D01*
X70957918Y-24404864D01*
X71434108Y-24404430D02*
X71433500Y-23737763D01*
X71433587Y-23833001D02*
X71481162Y-23785339D01*
X71576357Y-23737633D01*
X71719214Y-23737503D01*
X71814496Y-23785035D01*
X71862201Y-23880229D01*
X71862679Y-24404039D01*
X71862201Y-23880229D02*
X71909734Y-23784948D01*
X72004928Y-23737242D01*
X72147785Y-23737112D01*
X72243067Y-23784644D01*
X72290773Y-23879838D01*
X72291251Y-24403648D01*
D11*
X40796761Y-25250003D02*
X95596761Y-25200003D01*
X40800000Y-28800000D02*
X40796226Y-24663583D01*
X95600000Y-28750000D02*
X95596226Y-24613583D01*
X95596761Y-25200003D02*
X94470793Y-25787451D01*
X95596761Y-25200003D02*
X94469723Y-24614610D01*
X40796761Y-25250003D02*
X41923799Y-25835396D01*
X40796761Y-25250003D02*
X41922729Y-24662555D01*
D10*
X102046766Y-57718433D02*
X102044910Y-58289859D01*
X102045838Y-58004146D02*
X101045843Y-58000899D01*
X101188390Y-58096600D01*
X101283319Y-58192147D01*
X101330628Y-58287539D01*
X101049708Y-56810429D02*
X101048162Y-57286617D01*
X101524196Y-57335782D01*
X101476731Y-57288009D01*
X101429422Y-57192616D01*
X101430195Y-56954522D01*
X101478123Y-56859439D01*
X101525896Y-56811975D01*
X101621289Y-56764666D01*
X101859383Y-56765439D01*
X101954466Y-56813367D01*
X102001930Y-56861140D01*
X102049239Y-56956532D01*
X102048466Y-57194626D01*
X102000538Y-57289709D01*
X101952765Y-57337173D01*
X101956012Y-56337179D02*
X102003785Y-56289715D01*
X102051249Y-56337488D01*
X102003476Y-56384952D01*
X101956012Y-56337179D01*
X102051249Y-56337488D01*
X101387524Y-55430566D02*
X102054187Y-55432731D01*
X101005800Y-55667423D02*
X101719309Y-55907836D01*
X101721319Y-55288792D01*
X101056511Y-54715202D02*
X101056820Y-54619964D01*
X101104748Y-54524882D01*
X101152522Y-54477417D01*
X101247914Y-54430108D01*
X101438544Y-54383107D01*
X101676638Y-54383880D01*
X101866958Y-54432118D01*
X101962041Y-54480046D01*
X102009505Y-54527819D01*
X102056815Y-54623211D01*
X102056506Y-54718449D01*
X102008578Y-54813532D01*
X101960804Y-54860996D01*
X101865412Y-54908306D01*
X101674782Y-54955306D01*
X101436688Y-54954533D01*
X101246368Y-54906296D01*
X101151285Y-54858368D01*
X101103821Y-54810594D01*
X101056511Y-54715202D01*
X101059603Y-53762826D02*
X101059912Y-53667589D01*
X101107840Y-53572506D01*
X101155614Y-53525041D01*
X101251006Y-53477732D01*
X101441636Y-53430731D01*
X101679730Y-53431504D01*
X101870050Y-53479742D01*
X101965133Y-53527670D01*
X102012598Y-53575443D01*
X102059907Y-53670835D01*
X102059598Y-53766073D01*
X102011670Y-53861156D01*
X101963897Y-53908620D01*
X101868504Y-53955930D01*
X101677875Y-54002930D01*
X101439781Y-54002157D01*
X101249460Y-53953920D01*
X101154377Y-53905992D01*
X101106913Y-53858218D01*
X101059603Y-53762826D01*
X102064545Y-52242271D02*
X101397882Y-52240107D01*
X101493120Y-52240416D02*
X101445656Y-52192643D01*
X101398346Y-52097251D01*
X101398810Y-51954394D01*
X101446738Y-51859311D01*
X101542130Y-51812002D01*
X102065937Y-51813702D01*
X101542130Y-51812002D02*
X101447047Y-51764074D01*
X101399737Y-51668681D01*
X101400201Y-51525825D01*
X101448129Y-51430742D01*
X101543521Y-51383432D01*
X102067328Y-51385133D01*
X102068874Y-50908945D02*
X101402211Y-50906781D01*
X101497449Y-50907090D02*
X101449985Y-50859316D01*
X101402675Y-50763924D01*
X101403139Y-50621068D01*
X101451067Y-50525985D01*
X101546459Y-50478675D01*
X102070266Y-50480376D01*
X101546459Y-50478675D02*
X101451376Y-50430747D01*
X101404066Y-50335355D01*
X101404530Y-50192499D01*
X101452458Y-50097416D01*
X101547850Y-50050106D01*
X102071657Y-50051807D01*
D11*
X102900976Y-46449678D02*
X102850976Y-61849678D01*
X103000000Y-46450000D02*
X102314558Y-46447775D01*
X102950000Y-61850000D02*
X102264558Y-61847775D01*
X102850976Y-61849678D02*
X102268216Y-60721276D01*
X102850976Y-61849678D02*
X103441051Y-60725084D01*
X102900976Y-46449678D02*
X102310901Y-47574272D01*
X102900976Y-46449678D02*
X103483736Y-47578080D01*
D10*
X34417619Y-50578571D02*
X34417619Y-50007142D01*
X34417619Y-50292857D02*
X35417619Y-50292857D01*
X35274761Y-50197619D01*
X35179523Y-50102380D01*
X35131904Y-50007142D01*
X35417619Y-51483333D02*
X35417619Y-51007142D01*
X34941428Y-50959523D01*
X34989047Y-51007142D01*
X35036666Y-51102380D01*
X35036666Y-51340476D01*
X34989047Y-51435714D01*
X34941428Y-51483333D01*
X34846190Y-51530952D01*
X34608095Y-51530952D01*
X34512857Y-51483333D01*
X34465238Y-51435714D01*
X34417619Y-51340476D01*
X34417619Y-51102380D01*
X34465238Y-51007142D01*
X34512857Y-50959523D01*
X34512857Y-51959523D02*
X34465238Y-52007142D01*
X34417619Y-51959523D01*
X34465238Y-51911904D01*
X34512857Y-51959523D01*
X34417619Y-51959523D01*
X35084285Y-52864285D02*
X34417619Y-52864285D01*
X35465238Y-52626190D02*
X34750952Y-52388095D01*
X34750952Y-53007142D01*
X35417619Y-53578571D02*
X35417619Y-53673809D01*
X35370000Y-53769047D01*
X35322380Y-53816666D01*
X35227142Y-53864285D01*
X35036666Y-53911904D01*
X34798571Y-53911904D01*
X34608095Y-53864285D01*
X34512857Y-53816666D01*
X34465238Y-53769047D01*
X34417619Y-53673809D01*
X34417619Y-53578571D01*
X34465238Y-53483333D01*
X34512857Y-53435714D01*
X34608095Y-53388095D01*
X34798571Y-53340476D01*
X35036666Y-53340476D01*
X35227142Y-53388095D01*
X35322380Y-53435714D01*
X35370000Y-53483333D01*
X35417619Y-53578571D01*
X35417619Y-54530952D02*
X35417619Y-54626190D01*
X35370000Y-54721428D01*
X35322380Y-54769047D01*
X35227142Y-54816666D01*
X35036666Y-54864285D01*
X34798571Y-54864285D01*
X34608095Y-54816666D01*
X34512857Y-54769047D01*
X34465238Y-54721428D01*
X34417619Y-54626190D01*
X34417619Y-54530952D01*
X34465238Y-54435714D01*
X34512857Y-54388095D01*
X34608095Y-54340476D01*
X34798571Y-54292857D01*
X35036666Y-54292857D01*
X35227142Y-54340476D01*
X35322380Y-54388095D01*
X35370000Y-54435714D01*
X35417619Y-54530952D01*
X34417619Y-56054761D02*
X35084285Y-56054761D01*
X34989047Y-56054761D02*
X35036666Y-56102380D01*
X35084285Y-56197619D01*
X35084285Y-56340476D01*
X35036666Y-56435714D01*
X34941428Y-56483333D01*
X34417619Y-56483333D01*
X34941428Y-56483333D02*
X35036666Y-56530952D01*
X35084285Y-56626190D01*
X35084285Y-56769047D01*
X35036666Y-56864285D01*
X34941428Y-56911904D01*
X34417619Y-56911904D01*
X34417619Y-57388095D02*
X35084285Y-57388095D01*
X34989047Y-57388095D02*
X35036666Y-57435714D01*
X35084285Y-57530952D01*
X35084285Y-57673809D01*
X35036666Y-57769047D01*
X34941428Y-57816666D01*
X34417619Y-57816666D01*
X34941428Y-57816666D02*
X35036666Y-57864285D01*
X35084285Y-57959523D01*
X35084285Y-58102380D01*
X35036666Y-58197619D01*
X34941428Y-58245238D01*
X34417619Y-58245238D01*
D11*
X33600000Y-46450000D02*
X33600000Y-61850000D01*
X33200000Y-46450000D02*
X34186421Y-46450000D01*
X33200000Y-61850000D02*
X34186421Y-61850000D01*
X33600000Y-61850000D02*
X33013579Y-60723496D01*
X33600000Y-61850000D02*
X34186421Y-60723496D01*
X33600000Y-46450000D02*
X33013579Y-47576504D01*
X33600000Y-46450000D02*
X34186421Y-47576504D01*
D10*
X37277619Y-50721428D02*
X37277619Y-50816666D01*
X37230000Y-50911904D01*
X37182380Y-50959523D01*
X37087142Y-51007142D01*
X36896666Y-51054761D01*
X36658571Y-51054761D01*
X36468095Y-51007142D01*
X36372857Y-50959523D01*
X36325238Y-50911904D01*
X36277619Y-50816666D01*
X36277619Y-50721428D01*
X36325238Y-50626190D01*
X36372857Y-50578571D01*
X36468095Y-50530952D01*
X36658571Y-50483333D01*
X36896666Y-50483333D01*
X37087142Y-50530952D01*
X37182380Y-50578571D01*
X37230000Y-50626190D01*
X37277619Y-50721428D01*
X36372857Y-51483333D02*
X36325238Y-51530952D01*
X36277619Y-51483333D01*
X36325238Y-51435714D01*
X36372857Y-51483333D01*
X36277619Y-51483333D01*
X36849047Y-52102380D02*
X36896666Y-52007142D01*
X36944285Y-51959523D01*
X37039523Y-51911904D01*
X37087142Y-51911904D01*
X37182380Y-51959523D01*
X37230000Y-52007142D01*
X37277619Y-52102380D01*
X37277619Y-52292857D01*
X37230000Y-52388095D01*
X37182380Y-52435714D01*
X37087142Y-52483333D01*
X37039523Y-52483333D01*
X36944285Y-52435714D01*
X36896666Y-52388095D01*
X36849047Y-52292857D01*
X36849047Y-52102380D01*
X36801428Y-52007142D01*
X36753809Y-51959523D01*
X36658571Y-51911904D01*
X36468095Y-51911904D01*
X36372857Y-51959523D01*
X36325238Y-52007142D01*
X36277619Y-52102380D01*
X36277619Y-52292857D01*
X36325238Y-52388095D01*
X36372857Y-52435714D01*
X36468095Y-52483333D01*
X36658571Y-52483333D01*
X36753809Y-52435714D01*
X36801428Y-52388095D01*
X36849047Y-52292857D01*
X37277619Y-53102380D02*
X37277619Y-53197619D01*
X37230000Y-53292857D01*
X37182380Y-53340476D01*
X37087142Y-53388095D01*
X36896666Y-53435714D01*
X36658571Y-53435714D01*
X36468095Y-53388095D01*
X36372857Y-53340476D01*
X36325238Y-53292857D01*
X36277619Y-53197619D01*
X36277619Y-53102380D01*
X36325238Y-53007142D01*
X36372857Y-52959523D01*
X36468095Y-52911904D01*
X36658571Y-52864285D01*
X36896666Y-52864285D01*
X37087142Y-52911904D01*
X37182380Y-52959523D01*
X37230000Y-53007142D01*
X37277619Y-53102380D01*
X37277619Y-54054761D02*
X37277619Y-54150000D01*
X37230000Y-54245238D01*
X37182380Y-54292857D01*
X37087142Y-54340476D01*
X36896666Y-54388095D01*
X36658571Y-54388095D01*
X36468095Y-54340476D01*
X36372857Y-54292857D01*
X36325238Y-54245238D01*
X36277619Y-54150000D01*
X36277619Y-54054761D01*
X36325238Y-53959523D01*
X36372857Y-53911904D01*
X36468095Y-53864285D01*
X36658571Y-53816666D01*
X36896666Y-53816666D01*
X37087142Y-53864285D01*
X37182380Y-53911904D01*
X37230000Y-53959523D01*
X37277619Y-54054761D01*
X36277619Y-55578571D02*
X36944285Y-55578571D01*
X36849047Y-55578571D02*
X36896666Y-55626190D01*
X36944285Y-55721428D01*
X36944285Y-55864285D01*
X36896666Y-55959523D01*
X36801428Y-56007142D01*
X36277619Y-56007142D01*
X36801428Y-56007142D02*
X36896666Y-56054761D01*
X36944285Y-56150000D01*
X36944285Y-56292857D01*
X36896666Y-56388095D01*
X36801428Y-56435714D01*
X36277619Y-56435714D01*
X36277619Y-56911904D02*
X36944285Y-56911904D01*
X36849047Y-56911904D02*
X36896666Y-56959523D01*
X36944285Y-57054761D01*
X36944285Y-57197619D01*
X36896666Y-57292857D01*
X36801428Y-57340476D01*
X36277619Y-57340476D01*
X36801428Y-57340476D02*
X36896666Y-57388095D01*
X36944285Y-57483333D01*
X36944285Y-57626190D01*
X36896666Y-57721428D01*
X36801428Y-57769047D01*
X36277619Y-57769047D01*
D11*
X38000000Y-53750000D02*
X38000000Y-54550000D01*
X39400000Y-53750000D02*
X37413579Y-53750000D01*
X39400000Y-54550000D02*
X37413579Y-54550000D01*
X38000000Y-54550000D02*
X37413579Y-53423496D01*
X38000000Y-54550000D02*
X38586421Y-53423496D01*
X38000000Y-53750000D02*
X37413579Y-54876504D01*
X38000000Y-53750000D02*
X38586421Y-54876504D01*
D10*
X100217619Y-50721428D02*
X100217619Y-50816666D01*
X100170000Y-50911904D01*
X100122380Y-50959523D01*
X100027142Y-51007142D01*
X99836666Y-51054761D01*
X99598571Y-51054761D01*
X99408095Y-51007142D01*
X99312857Y-50959523D01*
X99265238Y-50911904D01*
X99217619Y-50816666D01*
X99217619Y-50721428D01*
X99265238Y-50626190D01*
X99312857Y-50578571D01*
X99408095Y-50530952D01*
X99598571Y-50483333D01*
X99836666Y-50483333D01*
X100027142Y-50530952D01*
X100122380Y-50578571D01*
X100170000Y-50626190D01*
X100217619Y-50721428D01*
X99312857Y-51483333D02*
X99265238Y-51530952D01*
X99217619Y-51483333D01*
X99265238Y-51435714D01*
X99312857Y-51483333D01*
X99217619Y-51483333D01*
X99789047Y-52102380D02*
X99836666Y-52007142D01*
X99884285Y-51959523D01*
X99979523Y-51911904D01*
X100027142Y-51911904D01*
X100122380Y-51959523D01*
X100170000Y-52007142D01*
X100217619Y-52102380D01*
X100217619Y-52292857D01*
X100170000Y-52388095D01*
X100122380Y-52435714D01*
X100027142Y-52483333D01*
X99979523Y-52483333D01*
X99884285Y-52435714D01*
X99836666Y-52388095D01*
X99789047Y-52292857D01*
X99789047Y-52102380D01*
X99741428Y-52007142D01*
X99693809Y-51959523D01*
X99598571Y-51911904D01*
X99408095Y-51911904D01*
X99312857Y-51959523D01*
X99265238Y-52007142D01*
X99217619Y-52102380D01*
X99217619Y-52292857D01*
X99265238Y-52388095D01*
X99312857Y-52435714D01*
X99408095Y-52483333D01*
X99598571Y-52483333D01*
X99693809Y-52435714D01*
X99741428Y-52388095D01*
X99789047Y-52292857D01*
X100217619Y-53102380D02*
X100217619Y-53197619D01*
X100170000Y-53292857D01*
X100122380Y-53340476D01*
X100027142Y-53388095D01*
X99836666Y-53435714D01*
X99598571Y-53435714D01*
X99408095Y-53388095D01*
X99312857Y-53340476D01*
X99265238Y-53292857D01*
X99217619Y-53197619D01*
X99217619Y-53102380D01*
X99265238Y-53007142D01*
X99312857Y-52959523D01*
X99408095Y-52911904D01*
X99598571Y-52864285D01*
X99836666Y-52864285D01*
X100027142Y-52911904D01*
X100122380Y-52959523D01*
X100170000Y-53007142D01*
X100217619Y-53102380D01*
X100217619Y-54054761D02*
X100217619Y-54150000D01*
X100170000Y-54245238D01*
X100122380Y-54292857D01*
X100027142Y-54340476D01*
X99836666Y-54388095D01*
X99598571Y-54388095D01*
X99408095Y-54340476D01*
X99312857Y-54292857D01*
X99265238Y-54245238D01*
X99217619Y-54150000D01*
X99217619Y-54054761D01*
X99265238Y-53959523D01*
X99312857Y-53911904D01*
X99408095Y-53864285D01*
X99598571Y-53816666D01*
X99836666Y-53816666D01*
X100027142Y-53864285D01*
X100122380Y-53911904D01*
X100170000Y-53959523D01*
X100217619Y-54054761D01*
X99217619Y-55578571D02*
X99884285Y-55578571D01*
X99789047Y-55578571D02*
X99836666Y-55626190D01*
X99884285Y-55721428D01*
X99884285Y-55864285D01*
X99836666Y-55959523D01*
X99741428Y-56007142D01*
X99217619Y-56007142D01*
X99741428Y-56007142D02*
X99836666Y-56054761D01*
X99884285Y-56150000D01*
X99884285Y-56292857D01*
X99836666Y-56388095D01*
X99741428Y-56435714D01*
X99217619Y-56435714D01*
X99217619Y-56911904D02*
X99884285Y-56911904D01*
X99789047Y-56911904D02*
X99836666Y-56959523D01*
X99884285Y-57054761D01*
X99884285Y-57197619D01*
X99836666Y-57292857D01*
X99741428Y-57340476D01*
X99217619Y-57340476D01*
X99741428Y-57340476D02*
X99836666Y-57388095D01*
X99884285Y-57483333D01*
X99884285Y-57626190D01*
X99836666Y-57721428D01*
X99741428Y-57769047D01*
X99217619Y-57769047D01*
D11*
X98400000Y-53750000D02*
X98400000Y-54550000D01*
X97000000Y-53750000D02*
X98986421Y-53750000D01*
X97000000Y-54550000D02*
X98986421Y-54550000D01*
X98400000Y-54550000D02*
X97813579Y-53423496D01*
X98400000Y-54550000D02*
X98986421Y-53423496D01*
X98400000Y-53750000D02*
X97813579Y-54876504D01*
X98400000Y-53750000D02*
X98986421Y-54876504D01*
M02*
