G04 #@! TF.GenerationSoftware,KiCad,Pcbnew,(5.1.2-1)-1*
G04 #@! TF.CreationDate,2019-12-30T17:07:45+01:00*
G04 #@! TF.ProjectId,C64_autofire,4336345f-6175-4746-9f66-6972652e6b69,rev?*
G04 #@! TF.SameCoordinates,Original*
G04 #@! TF.FileFunction,Legend,Top*
G04 #@! TF.FilePolarity,Positive*
%FSLAX46Y46*%
G04 Gerber Fmt 4.6, Leading zero omitted, Abs format (unit mm)*
G04 Created by KiCad (PCBNEW (5.1.2-1)-1) date 2019-12-30 17:07:45*
%MOMM*%
%LPD*%
G04 APERTURE LIST*
%ADD10C,0.150000*%
%ADD11C,0.120000*%
G04 APERTURE END LIST*
D10*
X118903784Y-48861653D02*
X118902020Y-48385466D01*
X118425657Y-48339611D01*
X118473452Y-48387054D01*
X118521423Y-48482115D01*
X118522305Y-48720208D01*
X118475039Y-48815622D01*
X118427597Y-48863417D01*
X118332536Y-48911389D01*
X118094442Y-48912270D01*
X117999028Y-48865004D01*
X117951233Y-48817562D01*
X117903262Y-48722501D01*
X117902380Y-48484407D01*
X117949646Y-48388994D01*
X117997088Y-48341199D01*
X118573804Y-49767644D02*
X117907142Y-49770113D01*
X118953872Y-49528139D02*
X118238709Y-49292691D01*
X118241002Y-49911734D01*
X118004319Y-50293566D02*
X117956877Y-50341361D01*
X117909082Y-50293919D01*
X117956524Y-50246124D01*
X118004319Y-50293566D01*
X117909082Y-50293919D01*
X118911544Y-50956877D02*
X118911897Y-51052115D01*
X118864631Y-51147528D01*
X118817188Y-51195324D01*
X118722127Y-51243295D01*
X118531829Y-51291619D01*
X118293735Y-51292501D01*
X118103084Y-51245588D01*
X118007670Y-51198322D01*
X117959875Y-51150879D01*
X117911904Y-51055818D01*
X117911551Y-50960581D01*
X117958817Y-50865167D01*
X118006259Y-50817372D01*
X118101320Y-50769401D01*
X118291619Y-50721076D01*
X118529712Y-50720195D01*
X118720364Y-50767108D01*
X118815778Y-50814374D01*
X118863573Y-50861816D01*
X118911544Y-50956877D01*
X118915071Y-51909252D02*
X118915424Y-52004489D01*
X118868158Y-52099903D01*
X118820716Y-52147698D01*
X118725655Y-52195669D01*
X118535356Y-52243994D01*
X118297263Y-52244875D01*
X118106611Y-52197962D01*
X118011198Y-52150696D01*
X117963402Y-52103254D01*
X117915431Y-52008193D01*
X117915078Y-51912955D01*
X117962344Y-51817542D01*
X118009787Y-51769746D01*
X118104848Y-51721775D01*
X118295146Y-51673451D01*
X118533240Y-51672569D01*
X118723891Y-51719482D01*
X118819305Y-51766748D01*
X118867100Y-51814191D01*
X118915071Y-51909252D01*
X118918599Y-52861626D02*
X118918951Y-52956864D01*
X118871685Y-53052277D01*
X118824243Y-53100072D01*
X118729182Y-53148044D01*
X118538884Y-53196368D01*
X118300790Y-53197250D01*
X118110139Y-53150337D01*
X118014725Y-53103071D01*
X117966930Y-53055628D01*
X117918958Y-52960567D01*
X117918606Y-52865330D01*
X117965872Y-52769916D01*
X118013314Y-52722121D01*
X118108375Y-52674149D01*
X118298674Y-52625825D01*
X118536767Y-52624943D01*
X118727418Y-52671857D01*
X118822832Y-52719123D01*
X118870627Y-52766565D01*
X118918599Y-52861626D01*
X117924249Y-54389129D02*
X118590911Y-54386660D01*
X118495674Y-54387012D02*
X118543469Y-54434455D01*
X118591440Y-54529516D01*
X118591970Y-54672372D01*
X118544704Y-54767786D01*
X118449642Y-54815757D01*
X117925837Y-54817697D01*
X118449642Y-54815757D02*
X118545056Y-54863023D01*
X118593028Y-54958084D01*
X118593557Y-55100941D01*
X118546291Y-55196354D01*
X118451230Y-55244326D01*
X117927424Y-55246266D01*
X117929188Y-55722453D02*
X118595850Y-55719984D01*
X118500612Y-55720337D02*
X118548407Y-55767779D01*
X118596379Y-55862840D01*
X118596908Y-56005696D01*
X118549642Y-56101110D01*
X118454581Y-56149081D01*
X117930775Y-56151021D01*
X118454581Y-56149081D02*
X118549995Y-56196347D01*
X118597966Y-56291409D01*
X118598495Y-56434265D01*
X118551229Y-56529679D01*
X118456168Y-56577650D01*
X117932362Y-56579590D01*
D11*
X116999582Y-25487409D02*
X117199582Y-79487409D01*
X86600000Y-25600000D02*
X117585999Y-25485237D01*
X86800000Y-79600000D02*
X117785999Y-79485237D01*
X117199582Y-79487409D02*
X116608993Y-78363085D01*
X117199582Y-79487409D02*
X117781827Y-78358741D01*
X116999582Y-25487409D02*
X116417337Y-26616077D01*
X116999582Y-25487409D02*
X117590171Y-26611733D01*
D10*
X63909523Y-14582380D02*
X64528571Y-14582380D01*
X64195238Y-14963333D01*
X64338095Y-14963333D01*
X64433333Y-15010952D01*
X64480952Y-15058571D01*
X64528571Y-15153809D01*
X64528571Y-15391904D01*
X64480952Y-15487142D01*
X64433333Y-15534761D01*
X64338095Y-15582380D01*
X64052380Y-15582380D01*
X63957142Y-15534761D01*
X63909523Y-15487142D01*
X64861904Y-14582380D02*
X65528571Y-14582380D01*
X65100000Y-15582380D01*
X65909523Y-15487142D02*
X65957142Y-15534761D01*
X65909523Y-15582380D01*
X65861904Y-15534761D01*
X65909523Y-15487142D01*
X65909523Y-15582380D01*
X66814285Y-14915714D02*
X66814285Y-15582380D01*
X66576190Y-14534761D02*
X66338095Y-15249047D01*
X66957142Y-15249047D01*
X67528571Y-14582380D02*
X67623809Y-14582380D01*
X67719047Y-14630000D01*
X67766666Y-14677619D01*
X67814285Y-14772857D01*
X67861904Y-14963333D01*
X67861904Y-15201428D01*
X67814285Y-15391904D01*
X67766666Y-15487142D01*
X67719047Y-15534761D01*
X67623809Y-15582380D01*
X67528571Y-15582380D01*
X67433333Y-15534761D01*
X67385714Y-15487142D01*
X67338095Y-15391904D01*
X67290476Y-15201428D01*
X67290476Y-14963333D01*
X67338095Y-14772857D01*
X67385714Y-14677619D01*
X67433333Y-14630000D01*
X67528571Y-14582380D01*
X68480952Y-14582380D02*
X68576190Y-14582380D01*
X68671428Y-14630000D01*
X68719047Y-14677619D01*
X68766666Y-14772857D01*
X68814285Y-14963333D01*
X68814285Y-15201428D01*
X68766666Y-15391904D01*
X68719047Y-15487142D01*
X68671428Y-15534761D01*
X68576190Y-15582380D01*
X68480952Y-15582380D01*
X68385714Y-15534761D01*
X68338095Y-15487142D01*
X68290476Y-15391904D01*
X68242857Y-15201428D01*
X68242857Y-14963333D01*
X68290476Y-14772857D01*
X68338095Y-14677619D01*
X68385714Y-14630000D01*
X68480952Y-14582380D01*
X70004761Y-15582380D02*
X70004761Y-14915714D01*
X70004761Y-15010952D02*
X70052380Y-14963333D01*
X70147619Y-14915714D01*
X70290476Y-14915714D01*
X70385714Y-14963333D01*
X70433333Y-15058571D01*
X70433333Y-15582380D01*
X70433333Y-15058571D02*
X70480952Y-14963333D01*
X70576190Y-14915714D01*
X70719047Y-14915714D01*
X70814285Y-14963333D01*
X70861904Y-15058571D01*
X70861904Y-15582380D01*
X71338095Y-15582380D02*
X71338095Y-14915714D01*
X71338095Y-15010952D02*
X71385714Y-14963333D01*
X71480952Y-14915714D01*
X71623809Y-14915714D01*
X71719047Y-14963333D01*
X71766666Y-15058571D01*
X71766666Y-15582380D01*
X71766666Y-15058571D02*
X71814285Y-14963333D01*
X71909523Y-14915714D01*
X72052380Y-14915714D01*
X72147619Y-14963333D01*
X72195238Y-15058571D01*
X72195238Y-15582380D01*
D11*
X49400000Y-16400000D02*
X86800000Y-16400000D01*
X49400000Y-25600000D02*
X49400000Y-15813579D01*
X86800000Y-25600000D02*
X86800000Y-15813579D01*
X86800000Y-16400000D02*
X85673496Y-16986421D01*
X86800000Y-16400000D02*
X85673496Y-15813579D01*
X49400000Y-16400000D02*
X50526504Y-16986421D01*
X49400000Y-16400000D02*
X50526504Y-15813579D01*
D10*
X110217619Y-50433333D02*
X110217619Y-50242857D01*
X110170000Y-50147619D01*
X110122380Y-50100000D01*
X109979523Y-50004761D01*
X109789047Y-49957142D01*
X109408095Y-49957142D01*
X109312857Y-50004761D01*
X109265238Y-50052380D01*
X109217619Y-50147619D01*
X109217619Y-50338095D01*
X109265238Y-50433333D01*
X109312857Y-50480952D01*
X109408095Y-50528571D01*
X109646190Y-50528571D01*
X109741428Y-50480952D01*
X109789047Y-50433333D01*
X109836666Y-50338095D01*
X109836666Y-50147619D01*
X109789047Y-50052380D01*
X109741428Y-50004761D01*
X109646190Y-49957142D01*
X109884285Y-51385714D02*
X109217619Y-51385714D01*
X110265238Y-51147619D02*
X109550952Y-50909523D01*
X109550952Y-51528571D01*
X109312857Y-51909523D02*
X109265238Y-51957142D01*
X109217619Y-51909523D01*
X109265238Y-51861904D01*
X109312857Y-51909523D01*
X109217619Y-51909523D01*
X110217619Y-52814285D02*
X110217619Y-52623809D01*
X110170000Y-52528571D01*
X110122380Y-52480952D01*
X109979523Y-52385714D01*
X109789047Y-52338095D01*
X109408095Y-52338095D01*
X109312857Y-52385714D01*
X109265238Y-52433333D01*
X109217619Y-52528571D01*
X109217619Y-52719047D01*
X109265238Y-52814285D01*
X109312857Y-52861904D01*
X109408095Y-52909523D01*
X109646190Y-52909523D01*
X109741428Y-52861904D01*
X109789047Y-52814285D01*
X109836666Y-52719047D01*
X109836666Y-52528571D01*
X109789047Y-52433333D01*
X109741428Y-52385714D01*
X109646190Y-52338095D01*
X110217619Y-53528571D02*
X110217619Y-53623809D01*
X110170000Y-53719047D01*
X110122380Y-53766666D01*
X110027142Y-53814285D01*
X109836666Y-53861904D01*
X109598571Y-53861904D01*
X109408095Y-53814285D01*
X109312857Y-53766666D01*
X109265238Y-53719047D01*
X109217619Y-53623809D01*
X109217619Y-53528571D01*
X109265238Y-53433333D01*
X109312857Y-53385714D01*
X109408095Y-53338095D01*
X109598571Y-53290476D01*
X109836666Y-53290476D01*
X110027142Y-53338095D01*
X110122380Y-53385714D01*
X110170000Y-53433333D01*
X110217619Y-53528571D01*
X110217619Y-54480952D02*
X110217619Y-54576190D01*
X110170000Y-54671428D01*
X110122380Y-54719047D01*
X110027142Y-54766666D01*
X109836666Y-54814285D01*
X109598571Y-54814285D01*
X109408095Y-54766666D01*
X109312857Y-54719047D01*
X109265238Y-54671428D01*
X109217619Y-54576190D01*
X109217619Y-54480952D01*
X109265238Y-54385714D01*
X109312857Y-54338095D01*
X109408095Y-54290476D01*
X109598571Y-54242857D01*
X109836666Y-54242857D01*
X110027142Y-54290476D01*
X110122380Y-54338095D01*
X110170000Y-54385714D01*
X110217619Y-54480952D01*
X109217619Y-56004761D02*
X109884285Y-56004761D01*
X109789047Y-56004761D02*
X109836666Y-56052380D01*
X109884285Y-56147619D01*
X109884285Y-56290476D01*
X109836666Y-56385714D01*
X109741428Y-56433333D01*
X109217619Y-56433333D01*
X109741428Y-56433333D02*
X109836666Y-56480952D01*
X109884285Y-56576190D01*
X109884285Y-56719047D01*
X109836666Y-56814285D01*
X109741428Y-56861904D01*
X109217619Y-56861904D01*
X109217619Y-57338095D02*
X109884285Y-57338095D01*
X109789047Y-57338095D02*
X109836666Y-57385714D01*
X109884285Y-57480952D01*
X109884285Y-57623809D01*
X109836666Y-57719047D01*
X109741428Y-57766666D01*
X109217619Y-57766666D01*
X109741428Y-57766666D02*
X109836666Y-57814285D01*
X109884285Y-57909523D01*
X109884285Y-58052380D01*
X109836666Y-58147619D01*
X109741428Y-58195238D01*
X109217619Y-58195238D01*
D11*
X108400000Y-21800000D02*
X108400000Y-86400000D01*
X96600000Y-21800000D02*
X108986421Y-21800000D01*
X96600000Y-86400000D02*
X108986421Y-86400000D01*
X108400000Y-86400000D02*
X107813579Y-85273496D01*
X108400000Y-86400000D02*
X108986421Y-85273496D01*
X108400000Y-21800000D02*
X107813579Y-22926504D01*
X108400000Y-21800000D02*
X108986421Y-22926504D01*
D10*
X62217619Y-49609523D02*
X62217619Y-50228571D01*
X61836666Y-49895238D01*
X61836666Y-50038095D01*
X61789047Y-50133333D01*
X61741428Y-50180952D01*
X61646190Y-50228571D01*
X61408095Y-50228571D01*
X61312857Y-50180952D01*
X61265238Y-50133333D01*
X61217619Y-50038095D01*
X61217619Y-49752380D01*
X61265238Y-49657142D01*
X61312857Y-49609523D01*
X62217619Y-50561904D02*
X62217619Y-51180952D01*
X61836666Y-50847619D01*
X61836666Y-50990476D01*
X61789047Y-51085714D01*
X61741428Y-51133333D01*
X61646190Y-51180952D01*
X61408095Y-51180952D01*
X61312857Y-51133333D01*
X61265238Y-51085714D01*
X61217619Y-50990476D01*
X61217619Y-50704761D01*
X61265238Y-50609523D01*
X61312857Y-50561904D01*
X61312857Y-51609523D02*
X61265238Y-51657142D01*
X61217619Y-51609523D01*
X61265238Y-51561904D01*
X61312857Y-51609523D01*
X61217619Y-51609523D01*
X62122380Y-52038095D02*
X62170000Y-52085714D01*
X62217619Y-52180952D01*
X62217619Y-52419047D01*
X62170000Y-52514285D01*
X62122380Y-52561904D01*
X62027142Y-52609523D01*
X61931904Y-52609523D01*
X61789047Y-52561904D01*
X61217619Y-51990476D01*
X61217619Y-52609523D01*
X62217619Y-53228571D02*
X62217619Y-53323809D01*
X62170000Y-53419047D01*
X62122380Y-53466666D01*
X62027142Y-53514285D01*
X61836666Y-53561904D01*
X61598571Y-53561904D01*
X61408095Y-53514285D01*
X61312857Y-53466666D01*
X61265238Y-53419047D01*
X61217619Y-53323809D01*
X61217619Y-53228571D01*
X61265238Y-53133333D01*
X61312857Y-53085714D01*
X61408095Y-53038095D01*
X61598571Y-52990476D01*
X61836666Y-52990476D01*
X62027142Y-53038095D01*
X62122380Y-53085714D01*
X62170000Y-53133333D01*
X62217619Y-53228571D01*
X62217619Y-54180952D02*
X62217619Y-54276190D01*
X62170000Y-54371428D01*
X62122380Y-54419047D01*
X62027142Y-54466666D01*
X61836666Y-54514285D01*
X61598571Y-54514285D01*
X61408095Y-54466666D01*
X61312857Y-54419047D01*
X61265238Y-54371428D01*
X61217619Y-54276190D01*
X61217619Y-54180952D01*
X61265238Y-54085714D01*
X61312857Y-54038095D01*
X61408095Y-53990476D01*
X61598571Y-53942857D01*
X61836666Y-53942857D01*
X62027142Y-53990476D01*
X62122380Y-54038095D01*
X62170000Y-54085714D01*
X62217619Y-54180952D01*
X61217619Y-55704761D02*
X61884285Y-55704761D01*
X61789047Y-55704761D02*
X61836666Y-55752380D01*
X61884285Y-55847619D01*
X61884285Y-55990476D01*
X61836666Y-56085714D01*
X61741428Y-56133333D01*
X61217619Y-56133333D01*
X61741428Y-56133333D02*
X61836666Y-56180952D01*
X61884285Y-56276190D01*
X61884285Y-56419047D01*
X61836666Y-56514285D01*
X61741428Y-56561904D01*
X61217619Y-56561904D01*
X61217619Y-57038095D02*
X61884285Y-57038095D01*
X61789047Y-57038095D02*
X61836666Y-57085714D01*
X61884285Y-57180952D01*
X61884285Y-57323809D01*
X61836666Y-57419047D01*
X61741428Y-57466666D01*
X61217619Y-57466666D01*
X61741428Y-57466666D02*
X61836666Y-57514285D01*
X61884285Y-57609523D01*
X61884285Y-57752380D01*
X61836666Y-57847619D01*
X61741428Y-57895238D01*
X61217619Y-57895238D01*
D11*
X60400000Y-37200000D02*
X60400000Y-70400000D01*
X60200000Y-37200000D02*
X60986421Y-37200000D01*
X60200000Y-70400000D02*
X60986421Y-70400000D01*
X60400000Y-70400000D02*
X59813579Y-69273496D01*
X60400000Y-70400000D02*
X60986421Y-69273496D01*
X60400000Y-37200000D02*
X59813579Y-38326504D01*
X60400000Y-37200000D02*
X60986421Y-38326504D01*
X54730000Y-41570000D02*
X54730000Y-37030000D01*
X56870000Y-41570000D02*
X56870000Y-37030000D01*
X54730000Y-41570000D02*
X54745000Y-41570000D01*
X56855000Y-41570000D02*
X56870000Y-41570000D01*
X54730000Y-37030000D02*
X54745000Y-37030000D01*
X56855000Y-37030000D02*
X56870000Y-37030000D01*
X57255000Y-69630000D02*
X57270000Y-69630000D01*
X55130000Y-69630000D02*
X55145000Y-69630000D01*
X57255000Y-74170000D02*
X57270000Y-74170000D01*
X55130000Y-74170000D02*
X55145000Y-74170000D01*
X57270000Y-74170000D02*
X57270000Y-69630000D01*
X55130000Y-74170000D02*
X55130000Y-69630000D01*
X75080000Y-41500000D02*
X78920000Y-41500000D01*
X75080000Y-41260000D02*
X78920000Y-41260000D01*
X75080000Y-41380000D02*
X78920000Y-41380000D01*
X78920000Y-34800000D02*
X78440000Y-34800000D01*
X78920000Y-42640000D02*
X78920000Y-34800000D01*
X78440000Y-42640000D02*
X78920000Y-42640000D01*
X75080000Y-34800000D02*
X75560000Y-34800000D01*
X75080000Y-42640000D02*
X75080000Y-34800000D01*
X75560000Y-42640000D02*
X75080000Y-42640000D01*
X79040000Y-64560000D02*
X79520000Y-64560000D01*
X79520000Y-64560000D02*
X79520000Y-72400000D01*
X79520000Y-72400000D02*
X79040000Y-72400000D01*
X76160000Y-64560000D02*
X75680000Y-64560000D01*
X75680000Y-64560000D02*
X75680000Y-72400000D01*
X75680000Y-72400000D02*
X76160000Y-72400000D01*
X79520000Y-65820000D02*
X75680000Y-65820000D01*
X79520000Y-65940000D02*
X75680000Y-65940000D01*
X79520000Y-65700000D02*
X75680000Y-65700000D01*
X47860000Y-44523333D02*
X51600000Y-44523333D01*
X51600000Y-44523333D02*
X51600000Y-31076667D01*
X51600000Y-31076667D02*
X47860000Y-31076667D01*
X49600000Y-44763333D02*
X51840000Y-44763333D01*
X51840000Y-44763333D02*
X51840000Y-40570000D01*
X51840000Y-77463333D02*
X51840000Y-73270000D01*
X49600000Y-77463333D02*
X51840000Y-77463333D01*
X51600000Y-63776667D02*
X47860000Y-63776667D01*
X51600000Y-77223333D02*
X51600000Y-63776667D01*
X47860000Y-77223333D02*
X51600000Y-77223333D01*
X84560000Y-44763333D02*
X84560000Y-40570000D01*
X86800000Y-44763333D02*
X84560000Y-44763333D01*
X84800000Y-44523333D02*
X88540000Y-44523333D01*
X84800000Y-31076667D02*
X84800000Y-44523333D01*
X88540000Y-31076667D02*
X84800000Y-31076667D01*
X88540000Y-63776667D02*
X84800000Y-63776667D01*
X84800000Y-63776667D02*
X84800000Y-77223333D01*
X84800000Y-77223333D02*
X88540000Y-77223333D01*
X86800000Y-77463333D02*
X84560000Y-77463333D01*
X84560000Y-77463333D02*
X84560000Y-73270000D01*
X68750000Y-41800000D02*
X68750000Y-40300000D01*
X67500000Y-37800000D02*
X63000000Y-37800000D01*
X61750000Y-40300000D02*
X61750000Y-41800000D01*
X63000000Y-44300000D02*
X67500000Y-44300000D01*
X63000000Y-69900000D02*
X67500000Y-69900000D01*
X61750000Y-65900000D02*
X61750000Y-67400000D01*
X67500000Y-63400000D02*
X63000000Y-63400000D01*
X68750000Y-67400000D02*
X68750000Y-65900000D01*
X77410000Y-48670000D02*
G75*
G02X75410000Y-48670000I-1000000J0D01*
G01*
X75410000Y-48670000D02*
X73760000Y-48670000D01*
X73760000Y-48670000D02*
X73760000Y-58950000D01*
X73760000Y-58950000D02*
X79060000Y-58950000D01*
X79060000Y-58950000D02*
X79060000Y-48670000D01*
X79060000Y-48670000D02*
X77410000Y-48670000D01*
D10*
X53957142Y-39466666D02*
X54004761Y-39514285D01*
X54052380Y-39657142D01*
X54052380Y-39752380D01*
X54004761Y-39895238D01*
X53909523Y-39990476D01*
X53814285Y-40038095D01*
X53623809Y-40085714D01*
X53480952Y-40085714D01*
X53290476Y-40038095D01*
X53195238Y-39990476D01*
X53100000Y-39895238D01*
X53052380Y-39752380D01*
X53052380Y-39657142D01*
X53100000Y-39514285D01*
X53147619Y-39466666D01*
X54052380Y-38514285D02*
X54052380Y-39085714D01*
X54052380Y-38800000D02*
X53052380Y-38800000D01*
X53195238Y-38895238D01*
X53290476Y-38990476D01*
X53338095Y-39085714D01*
X54357142Y-72066666D02*
X54404761Y-72114285D01*
X54452380Y-72257142D01*
X54452380Y-72352380D01*
X54404761Y-72495238D01*
X54309523Y-72590476D01*
X54214285Y-72638095D01*
X54023809Y-72685714D01*
X53880952Y-72685714D01*
X53690476Y-72638095D01*
X53595238Y-72590476D01*
X53500000Y-72495238D01*
X53452380Y-72352380D01*
X53452380Y-72257142D01*
X53500000Y-72114285D01*
X53547619Y-72066666D01*
X53547619Y-71685714D02*
X53500000Y-71638095D01*
X53452380Y-71542857D01*
X53452380Y-71304761D01*
X53500000Y-71209523D01*
X53547619Y-71161904D01*
X53642857Y-71114285D01*
X53738095Y-71114285D01*
X53880952Y-71161904D01*
X54452380Y-71733333D01*
X54452380Y-71114285D01*
X74532380Y-39458095D02*
X73532380Y-39458095D01*
X73532380Y-39220000D01*
X73580000Y-39077142D01*
X73675238Y-38981904D01*
X73770476Y-38934285D01*
X73960952Y-38886666D01*
X74103809Y-38886666D01*
X74294285Y-38934285D01*
X74389523Y-38981904D01*
X74484761Y-39077142D01*
X74532380Y-39220000D01*
X74532380Y-39458095D01*
X74532380Y-37934285D02*
X74532380Y-38505714D01*
X74532380Y-38220000D02*
X73532380Y-38220000D01*
X73675238Y-38315238D01*
X73770476Y-38410476D01*
X73818095Y-38505714D01*
X75252380Y-44061904D02*
X74252380Y-44061904D01*
X75252380Y-43490476D02*
X74680952Y-43919047D01*
X74252380Y-43490476D02*
X74823809Y-44061904D01*
X80972380Y-69218095D02*
X79972380Y-69218095D01*
X79972380Y-68980000D01*
X80020000Y-68837142D01*
X80115238Y-68741904D01*
X80210476Y-68694285D01*
X80400952Y-68646666D01*
X80543809Y-68646666D01*
X80734285Y-68694285D01*
X80829523Y-68741904D01*
X80924761Y-68837142D01*
X80972380Y-68980000D01*
X80972380Y-69218095D01*
X80067619Y-68265714D02*
X80020000Y-68218095D01*
X79972380Y-68122857D01*
X79972380Y-67884761D01*
X80020000Y-67789523D01*
X80067619Y-67741904D01*
X80162857Y-67694285D01*
X80258095Y-67694285D01*
X80400952Y-67741904D01*
X80972380Y-68313333D01*
X80972380Y-67694285D01*
X80252380Y-63661904D02*
X79252380Y-63661904D01*
X80252380Y-63090476D02*
X79680952Y-63519047D01*
X79252380Y-63090476D02*
X79823809Y-63661904D01*
X49052380Y-28670000D02*
X49766666Y-28670000D01*
X49909523Y-28717619D01*
X50004761Y-28812857D01*
X50052380Y-28955714D01*
X50052380Y-29050952D01*
X50052380Y-27670000D02*
X50052380Y-28241428D01*
X50052380Y-27955714D02*
X49052380Y-27955714D01*
X49195238Y-28050952D01*
X49290476Y-28146190D01*
X49338095Y-28241428D01*
X49052380Y-61370000D02*
X49766666Y-61370000D01*
X49909523Y-61417619D01*
X50004761Y-61512857D01*
X50052380Y-61655714D01*
X50052380Y-61750952D01*
X49147619Y-60941428D02*
X49100000Y-60893809D01*
X49052380Y-60798571D01*
X49052380Y-60560476D01*
X49100000Y-60465238D01*
X49147619Y-60417619D01*
X49242857Y-60370000D01*
X49338095Y-60370000D01*
X49480952Y-60417619D01*
X50052380Y-60989047D01*
X50052380Y-60370000D01*
X86252380Y-47596666D02*
X86966666Y-47596666D01*
X87109523Y-47644285D01*
X87204761Y-47739523D01*
X87252380Y-47882380D01*
X87252380Y-47977618D01*
X86252380Y-47215713D02*
X86252380Y-46596666D01*
X86633333Y-46929999D01*
X86633333Y-46787142D01*
X86680952Y-46691904D01*
X86728571Y-46644285D01*
X86823809Y-46596666D01*
X87061904Y-46596666D01*
X87157142Y-46644285D01*
X87204761Y-46691904D01*
X87252380Y-46787142D01*
X87252380Y-47072856D01*
X87204761Y-47168094D01*
X87157142Y-47215713D01*
X86252380Y-80296666D02*
X86966666Y-80296666D01*
X87109523Y-80344285D01*
X87204761Y-80439523D01*
X87252380Y-80582380D01*
X87252380Y-80677618D01*
X86585714Y-79391904D02*
X87252380Y-79391904D01*
X86204761Y-79629999D02*
X86919047Y-79868094D01*
X86919047Y-79249047D01*
X63916666Y-37204761D02*
X64059523Y-37252380D01*
X64297619Y-37252380D01*
X64392857Y-37204761D01*
X64440476Y-37157142D01*
X64488095Y-37061904D01*
X64488095Y-36966666D01*
X64440476Y-36871428D01*
X64392857Y-36823809D01*
X64297619Y-36776190D01*
X64107142Y-36728571D01*
X64011904Y-36680952D01*
X63964285Y-36633333D01*
X63916666Y-36538095D01*
X63916666Y-36442857D01*
X63964285Y-36347619D01*
X64011904Y-36300000D01*
X64107142Y-36252380D01*
X64345238Y-36252380D01*
X64488095Y-36300000D01*
X64821428Y-36252380D02*
X65059523Y-37252380D01*
X65250000Y-36538095D01*
X65440476Y-37252380D01*
X65678571Y-36252380D01*
X66583333Y-37252380D02*
X66011904Y-37252380D01*
X66297619Y-37252380D02*
X66297619Y-36252380D01*
X66202380Y-36395238D01*
X66107142Y-36490476D01*
X66011904Y-36538095D01*
X63916666Y-62804761D02*
X64059523Y-62852380D01*
X64297619Y-62852380D01*
X64392857Y-62804761D01*
X64440476Y-62757142D01*
X64488095Y-62661904D01*
X64488095Y-62566666D01*
X64440476Y-62471428D01*
X64392857Y-62423809D01*
X64297619Y-62376190D01*
X64107142Y-62328571D01*
X64011904Y-62280952D01*
X63964285Y-62233333D01*
X63916666Y-62138095D01*
X63916666Y-62042857D01*
X63964285Y-61947619D01*
X64011904Y-61900000D01*
X64107142Y-61852380D01*
X64345238Y-61852380D01*
X64488095Y-61900000D01*
X64821428Y-61852380D02*
X65059523Y-62852380D01*
X65250000Y-62138095D01*
X65440476Y-62852380D01*
X65678571Y-61852380D01*
X66011904Y-61947619D02*
X66059523Y-61900000D01*
X66154761Y-61852380D01*
X66392857Y-61852380D01*
X66488095Y-61900000D01*
X66535714Y-61947619D01*
X66583333Y-62042857D01*
X66583333Y-62138095D01*
X66535714Y-62280952D01*
X65964285Y-62852380D01*
X66583333Y-62852380D01*
X75648095Y-47122380D02*
X75648095Y-47931904D01*
X75695714Y-48027142D01*
X75743333Y-48074761D01*
X75838571Y-48122380D01*
X76029047Y-48122380D01*
X76124285Y-48074761D01*
X76171904Y-48027142D01*
X76219523Y-47931904D01*
X76219523Y-47122380D01*
X77219523Y-48122380D02*
X76648095Y-48122380D01*
X76933809Y-48122380D02*
X76933809Y-47122380D01*
X76838571Y-47265238D01*
X76743333Y-47360476D01*
X76648095Y-47408095D01*
M02*
